<svg xmlns="http://www.w3.org/2000/svg" viewBox="0 0 128 128">
    <rect width="100%" height="100%"/>
    <path fill="#6D726D" d="M94 9c7.067 3.262 12.413 7.73 17 14v2h2c7.781 9.656 9.181 20.614 9.125 32.625l.012 2.523C122.13 64.23 122.023 68.02 121 72h-2l-.738 2.566c-1.39 3.784-3.258 7.016-5.45 10.371l-1.21 1.863C107.356 93.189 102.834 98.334 96 102l-1.523 1.145C84.162 110.599 69.335 112.459 57 111c-9.739-1.972-18.56-5.785-27-11l-3.437-2c-2.966-2.315-4.52-4.867-6.563-8l-2.187-.937L16 88a117 117 0 0 1-1-7l-1.5-3.125C11.032 72.638 11.248 66.688 11 61l2.938 2.563Q15.966 65.283 18 67l1.977 1.71C26.406 74.033 33.489 77.486 41 81l-1-5h-2c-.745-15.883-.745-15.883 4-23l2-2h3l.625-1.812C49.575 46.086 51.633 45.389 55 44c8.667-1.058 16.454-.58 24 4v2l1.75.188C84.062 51.384 85.114 53.045 87 56c.342 2.825.473 5.197.375 8l-.004 2.117C87.303 70.141 86.98 73.467 85 77c-9.998 8.542-21.563 8.155-34 8l-1 4c6.48 2.16 15.398 2.448 21.809-.129 2.24-1.488 4.2-3.064 6.191-4.871l2.059-1.664C83.536 79.589 83.536 79.589 86 76h2v4h5v-2l2-1c.393-2.257.393-2.257.5-4.875.216-3.705.373-4.934 2.5-8.125 1.479-8.113 1.245-16.656 1.313-24.875l.087-3.566c.061-8.512-1.494-15.58-4.4-23.559z"/>
    <path fill="#636761" d="M72.977 44.902c2.091.933 4.066 1.91 6.023 3.098v2l1.75.188C84.062 51.384 85.114 53.045 87 56c.342 2.825.473 5.197.375 8l-.004 2.117C87.303 70.141 86.98 73.467 85 77c-9.998 8.542-21.563 8.155-34 8l-2 4-1.61-1.277-2.14-1.66-2.11-1.653c-2.1-1.384-3.683-1.973-6.14-2.41l1-2 3 1-1-5h-2c-.745-15.883-.745-15.883 4-23l2-2h3l.625-1.812c4.846-7.71 17.742-6.592 25.352-4.286"/>
    <path fill="#262B26" d="M64 2q4.125-.08 8.25-.125l2.355-.05C81.963 1.76 81.963 1.76 85 4l1 2 2.063-.562c3.51-.523 6.459-.052 9.937.562l1 3c1.696 1.24 1.696 1.24 3.75 2.313 4.057 2.408 6.518 4.846 9.25 8.687v2h3l1 7h2l-1 4c-4-5.75-4-5.75-4-8h-2q-1.375-2.136-2.738-4.281C104.609 15.742 99.152 12.267 94 9l1.875 3.5c4.545 8.484 4.407 16.917 4.313 26.313l-.002 3.658C100.089 62.367 100.089 62.367 97 67c-.456 2.509-.456 2.509-.625 5.188l-.227 2.73L96 77l-3 1v2h-5v-4h-2l-.664 1.71c-1.765 3.024-3.985 4.73-6.711 6.915l-2.898 2.352c-5.048 3.746-8.517 4.34-14.79 4.273l-2.181.023C54.97 91.26 53.22 91.148 50 89c-.187-2.625-.187-2.625 0-5l2.965.07c10.071.139 18.337-.276 27.308-5.168C82 78 82 78 85 77c1.055-4.346 1.217-8.612 1.25-13.062l.063-2.143C86.345 57.415 85.8 55.308 83 52v-4l-2-1h2v-2h-2l-1-2h-5l1-3-3-2v-2h5l.438-2.312C79 31 79 31 80 28c.067-1.394.085-2.792.063-4.187L80 20l-4-2v2l2 1-2 1 3 3-6-2v-5h2c-1.156-2.539-1.156-2.539-3-5-2.512-.82-2.512-.82-5-1l-2-1v2c-1.875-.25-1.875-.25-4-1-1.25-2.062-1.25-2.062-2-4h2l-1-4h4z"/>
    <path fill="#393E39" d="M43 12v2h5v1h9v2l-2 1 1.938.375L59 19c1.816 3.632 2.256 6.094 1 10h-2v-2h-3v3h7v-6h4c-.875 7.75-.875 7.75-2 10l-4 1 12 3v2l-12-1-1 4 1.375-1.5C62 40 62 40 64 40v3l2 1-2.195.113C58.26 44.49 53.745 44.836 49 48l-2 3a159 159 0 0 1-5 3l-2 2v-2l-3-1v-6h-4c-2-3-2-3-2-6h-2l-1-2-4 4c1.875-4.75 1.875-4.75 3-7l-2-1v-3h-2v-2l-2-1c2.311-4.374 3.891-7.166 8-10l1-3c2.75-1.062 2.75-1.062 6-2l2.75-1.125C41 12 41 12 43 12"/>
    <path fill="#2C312C" d="m35 53 1 2c2.025.652 2.025.652 4 1l-.465 2.012c-.643 3.59-.885 7.166-1.097 10.8l-.131 2.1A1735 1735 0 0 0 38 76h2l1 5c-11.593-1.939-21.051-10.829-29-19 .208 8.136.208 8.136 2.563 15.813C16.2 81.444 16.24 84.06 16 88l2.25.625C21 90 21 90 22.875 92.875 25.428 96.629 28.047 98.057 32 100l3.18 1.695C50.078 109.567 65.365 113.088 82 108c4.434-1.632 8.492-3.553 12.375-6.25C97 100 97 100 100 100l-2.25 2.188c-2.74 2.673-2.74 2.673-4.687 5.437-4.134 4.76-8.3 5.524-14.376 6l-3.175.164c-2.45-.066-2.45-.066-3.512 1.211-1.978.073-3.958.084-5.937.063l-3.278-.028L60 115c-2.21-.105-2.21-.105-5 1-2.043-.777-2.043-.777-4.187-1.937-1.074-.57-1.074-.57-2.168-1.153L47 112v-2q-3.498-1.008-7-2l-2.25-.75c-2.1-.498-2.1-.498-4.75 1.75l-1 3-3-1 3-8-9-1v-3h-2l-1-6-1.86-.168C16 92 16 92 14.735 89.637l-.984-2.95-1.016-2.925C12 81 12 81 12 77h-2a688 688 0 0 1-1.5-5.625l-.844-3.164C7.001 65.005 6.738 62.26 7 59l2-2 1.574 1.39C16.87 64.289 16.87 64.289 24 69l1-3h4l1-5 3-1c1.23-3.512 1.23-3.512 2-7"/>
    <path fill="#595F5E" d="M94 9c7.067 3.262 12.413 7.73 17 14v2h2c7.781 9.656 9.181 20.614 9.125 32.625l.012 2.523C122.13 64.23 122.023 68.02 121 72h-2l.5-2.875c.685-4.701.586-9.385.5-14.125l-3.14-1.242-4.11-1.633-2.066-.816c-3.3-1.314-6.546-2.643-9.684-4.309l1 5-2 1-.028-2.364a1348 1348 0 0 0-.222-10.824l-.043-3.716C99.479 27.462 97.934 20.11 95 12z"/>
    <path fill="#888A83" d="M65.438 43.563c6.637.426 6.637.426 9.562 2.437 1.227 3.945 1.049 7.038 0 11l3.25.125C82 58 82 58 84.438 60.938 86 64 86 64 86 66h-2v2l2 1c-1.75 3.875-1.75 3.875-4 5l-1-5h-8l2-9h-2l-.625 1.688C69.903 65.844 65.625 69.458 61 71c-4.54.33-7.93.093-12-2l-2-2c.229-7.203.229-7.203 2.875-9.937C54.045 54.978 57.39 54.913 62 55v-3l-3-1v-1l-2-1c2.302-4.003 3.893-5.37 8.438-5.437"/>
    <path fill="#171D1B" d="m87 5 11 1 1 3c1.696 1.24 1.696 1.24 3.75 2.313 4.057 2.408 6.518 4.846 9.25 8.687v2h3l1 7h2l-1 4c-4-5.75-4-5.75-4-8h-2q-1.375-2.136-2.738-4.281C104.609 15.742 99.152 12.267 94 9l1.875 3.5c4.542 8.478 4.462 17.042 4.438 26.438l.048 3.708c.004 7.125-.66 12.747-3.361 19.354h-3c-2.187-2.5-2.187-2.5-4-5l2-1-1.5-1.375C89 53 89 53 89 51h3v-2l-3-1 2-2c.643-2.069.643-2.069 1-4h-2l-1-3c-2.015-.733-2.015-.733-4-1l.438-2c.594-2.816.594-2.816.675-4.973.138-2.105.316-3.993.887-6.027a95 95 0 0 1 5-4c.419-2.67.419-2.67 0-5l-1.937-.687C88 14 88 14 87.25 11.375L87 9h-2z"/>
    <path fill="#2B302B" d="m43 6 3 1h-2v2l8-3 1 3-3.43 1.023-4.445 1.352-2.262.672C38.537 13.317 38.537 13.317 35 16c-2.625.125-2.625.125-5 0l-.25 1.813C29 20 29 20 27.125 21.375 24.305 23.532 23.295 25.728 22 29l1 3h2v3l3 1-2 4 3-2v3h2l2 6 5-1v7l2 1v2h-5l-.812 1.875C33 60 33 60 30 62c-.724 2.06-.724 2.06-1 4l-2-1 1-4-1.875-.25C24 60 24 60 22.813 58.125A125 125 0 0 1 21 53l-3-1-1-5h2l-1-2c-2.993 1.098-3.846 1.677-5.25 4.625L12 52h-1l1-12h2l.375-3.375C15 33 15 33 17 31l.875-2.687c1.807-5.32 3.372-9.226 8.25-12.25C29 15 29 15 31 15v-2h2l1-3c3.32-1.705 5.185-2 9-2z"/>
    <path fill="#6D706A" d="m61 44-3 5 3 1-1 1 2 1v3l-2.082.367-2.73.508-2.708.492c-2.707.545-2.707.545-5.48 2.633-.652 1.89-.652 1.89-.812 4l-.27 2.125C47.799 67.25 47.799 67.25 50 69c2.322.575 4.644.951 7.004 1.34L59 71l1 3h-2l-2 4-3-1v-2c-3.083 1.199-6.063 2.477-9 4l1 2h-3v-2h-2v-3h-2c-.745-15.883-.745-15.883 4-23l2-2h3l.625-1.812C50.709 44.28 55.571 43.612 61 44"/>
    <path fill="#303430" d="M53 19c-1 1-1 1-3.562 1.063L47 20v5l-1-4-1.812 1C42 23 42 23 39 23l5 10 2-6h1v8l-6 1-4-10c.611 7.216.611 7.216 3 14l2-1 3-1q2.986-1.182 5.965-2.379C53 35 53 35 57 35v2c-.675.182-1.35.364-2.047.55l-2.703.763-2.672.738c-2.64.972-4.373 2.238-6.578 3.949h-2v4l5 1c-1.443 3.366-3.333 5.51-6 8v-2l-3-1v-6h-4c-2-3-2-3-2-6h-2l-1-2-4 4c1.875-4.75 1.875-4.75 3-7l-2-1v-3h-2v-2l-2-1 3-6 4 2 1.813-1.437C32 22 32 22 35 21v2h-2v2l4-1v-2q2.869-1.048 5.75-2.062l3.234-1.16c2.939-.758 4.24-.85 7.016.222m-10 6 3 1Z"/>
    <path fill="#85877F" d="M78 86h2l.938 2.875c.936 2.986.936 2.986 2.062 5.125h2l1-2v3l-3 2-.812 1.875c-2.769 4.954-8.608 7.083-13.805 8.73-4.061.673-7.507-.466-11.383-1.605h-2c-2.752-.353-4.588-.711-6.875-2.312C47 102 47 102 47.375 100L48 98l-1-3h2v-3l4-1v5c6.134 1.583 11.876 2.236 17.438-1L73 93h2l.938-2.937C77 87 77 87 78 86"/>
    <path fill="#606662" d="m111 27 1 2 1.938.438C116 30 116 30 118 33c.41 2.085.41 2.085.633 4.45l.254 2.568.238 2.67.262 2.705q.318 3.302.613 6.607c-4.117-.722-7.305-2.024-11-4l1-3-1.687 1.125C106 47 106 47 103.25 46.125L101 45c-.535-2.85-.782-4.263 0-7 2.15-2.338 4.434-4.247 6.934-6.203 2.32-1.71 2.32-1.71 3.066-4.797"/>
    <path fill="#131C21" d="m43 6 3 1h-2v2l8-3 1 3-3.43 1.023-4.445 1.352-2.262.672C38.537 13.317 38.537 13.317 35 16c-2.625.125-2.625.125-5 0l-.25 1.813C29 20 29 20 27.125 21.375 24.305 23.532 23.295 25.728 22 29l1 3h2c-.375 2.438-.375 2.438-1 5l-2 1v-4c-2.09 4.54-2.09 4.54-3.437 9.313L18 45l-1.937.938c-2.328.935-2.328.935-3.313 3.687L12 52h-1l1-12h2l.375-3.375C15 33 15 33 17 31l.875-2.687c1.807-5.32 3.372-9.226 8.25-12.25C29 15 29 15 31 15v-2h2l1-3c3.32-1.705 5.185-2 9-2z"/>
    <path fill="#2E373B" d="m98 99 2 1-2.25 2.188c-2.74 2.673-2.74 2.673-4.687 5.437-4.134 4.76-8.3 5.524-14.376 6l-3.175.164c-2.45-.066-2.45-.066-3.512 1.211-1.978.073-3.958.084-5.937.063l-3.278-.028L60 115c-2.21-.105-2.21-.105-5 1-2.043-.777-2.043-.777-4.187-1.937-1.074-.57-1.074-.57-2.168-1.153L47 112v-2l-3.312-.812C40.2 108.064 39.27 107.594 37 105c-2.1-1.176-2.1-1.176-4-2l2-1c2.215.89 2.215.89 4.938 2.25C53.322 110.482 67.63 112.395 82 108c5.637-2.075 11.685-4.685 16-9"/>
    <path fill="#5E625E" d="m11 61 2.938 2.563C19.438 68.28 25.197 72.664 31 77l-3.25.25c-4.024.805-5.232 1.627-7.75 4.75 1.017 6.231 3.376 8.675 8.32 12.52L30 96v2h2v2l-4-2-2-.75c-2.875-1.797-4.136-4.454-6-7.25l-2.187-.937L16 88a117 117 0 0 1-1-7l-1.5-3.125C11.032 72.638 11.248 66.688 11 61"/>
    <path fill="#6F736C" d="m75 46 4 2v2l1.75.188C84.062 51.384 85.114 53.045 87 56c.342 2.825.473 5.197.375 8l-.004 2.117C87.302 70.161 86.777 73.361 85 77l-2.562-.937C78.938 74.98 75.628 74.462 72 74c-1.67-.32-3.337-.647-5-1l1-2c2.941-.633 2.941-.633 6.563-1.125l3.628-.508L81 69l2 4 3-4-4-1h2v-2h2c-2.002-4.77-2.002-4.77-5.824-7.91-2.128-.616-2.128-.616-5.176-1.09z"/>
    <path fill="#8C8F89" d="m66 45 3 1 1 3 2 1-1 3h3v4l3.75.125c3.769.448 4.104.703 6.75 3.813C86 64 86 64 86 66h-2v2l2 1c-1.75 3.875-1.75 3.875-4 5l-1-5h-8l2-10-4-2a107 107 0 0 1-4.187-2.937l-2.106-1.528C63 51 63 51 62 48c1.813-1.562 1.813-1.562 4-3"/>
    <path fill="#7F827C" d="M78 86h2l.938 2.875c.936 2.986.936 2.986 2.062 5.125h2l1-2v3l-3 2-.812 1.875c-2.837 5.076-8.707 7-13.997 8.664-2.938.618-5.322.27-8.191-.539v-1l2.555-.621 3.32-.817 3.305-.808c2.745-.633 2.745-.633 4.82-1.754h-8c.125-2.25.125-2.25 1-5 5.081-4 5.081-4 8-4l.938-2.937C77 87 77 87 78 86"/>
    <path fill="#18222A" d="m8 57 3 2H9l.375 3.875c.07.72.14 1.439.21 2.18.279 2.172.279 2.172 2.415 3.945a90 90 0 0 1 1.563 5.563c.651 3.515.651 3.515 2.437 6.437q.062 3.5 0 7l2.25.625C21 90 21 90 22.875 92.875c2.013 2.96 2.774 3.72 5.75 5.313C32 100 32 100 34 103c2.05 1.192 2.05 1.192 4 2l-2.437 1.813c-2.786 1.996-2.786 1.996-3.563 5.187l-3-1 3-8-9-1v-3h-2l-1-6-1.86-.168C16 92 16 92 14.735 89.637l-.984-2.95-1.016-2.925C12 81 12 81 12 77h-2a688 688 0 0 1-1.5-5.625l-.844-3.164C6.861 64.32 6.178 60.644 8 57"/>
    <path fill="#696E68" d="m80 82 1 3c2 1.209 2 1.209 4 2l-5 2v-3c-2.302.877-2.302.877-3.125 3.75C74.386 94.064 71.6 96.142 67 98c-5.026.811-9.432.358-14-2v-5l3.184-.008C66.293 90.782 72.622 89.378 80 82"/>
    <path fill="#111613" d="M81 82a672 672 0 0 1-3.75 3.375l-2.11 1.898c-4.626 3.732-8.339 4.04-14.202 3.977l-2.182.023C54.97 91.26 53.22 91.148 50 89c-.187-2.625-.187-2.625 0-5l2.965.07C61.476 84.187 73.542 79.685 81 82"/>
    <path fill="#777971" d="M40 83c4.776 1.642 8.794 4.265 13 7l-4 2v3h-2l2 4h-2v3c-2.867-.573-3.861-.861-6-3l-3-2c-.886-4.85-.261-9.62 2-14"/>
    <path fill="#7B7E77" d="M65.438 43.563c6.637.426 6.637.426 9.562 2.437 1.227 3.945 1.049 7.038 0 11l-1-4h-3l-1-3-2-1v-3l-5 2v3l1.734.805c2.374 1.252 4.388 2.689 6.516 4.32l2.14 1.633L75 59l-2 1-1 2a292 292 0 0 1-5-2.75l-2.812-1.547L62 56v-4l-3-1v-1l-2-1c2.302-4.003 3.893-5.37 8.438-5.437"/>
    <path fill="#303531" d="M57 4h3c.553 2.076 1 3.844 1 6l1 2 3 1v-2c6.49.49 6.49.49 8.938 2.938C75 16 75 16 75 18h-2v5l-4 2 3-5h-3v2h-4v-4h-4v-4l-3-1-1-6-4-1h4z"/>
    <path fill="#6E726C" d="m61 44-3 5-2-1-1 5 2 1-3.812.313c-3.328.383-3.328.383-6.063 2.25L46 58h-2l-1-6 1.875-.25L47 51l.875-1.875C50.534 44.103 55.815 43.63 61 44m-5 5h5l-3 3-2-1z"/>
    <path fill="#1E262E" d="M117 76h1v7h-2l-1 8-2.25.625c-3.587 1.793-4.545 4.036-6.75 7.375-3.658 3.642-7.277 6.85-12 9l-1-3 1.875-.25c2.276-.523 2.276-.523 3-2.55 1.362-2.663 3.039-4.13 5.25-6.138C109.086 90.276 113.291 83.419 117 76"/>
    <path fill="#7B7F79" d="M101 66c3.594 5.39 4.454 8.537 4 15l-11-1 2-13c3-1 3-1 5-1"/>
    <path fill="#5C5F59" d="m56 47 1 2-1 2 6 1v3l-2.082.367-2.73.508-2.708.492c-2.707.545-2.707.545-5.48 2.633-.652 1.89-.652 1.89-.812 4l-.27 2.125C47.799 67.25 47.799 67.25 50 69c2.069.643 2.069.643 4 1v3c-2.945-.631-5.518-1.263-8-3-1.573-3.618-2-6.02-2-10l-3-1h2v-3h-2l1-3c2 2 2 2 2 5 1.985-.267 1.985-.267 4-1l1-3 6-1-1-3z"/>
    <path fill="#232722" d="m19 45 4 1v3h3l-1 7h2v2h4v-2l-3-2c2.49-1.245 3.41-.777 6 0-.312 2.875-.312 2.875-1 6l-3 2c-.724 2.06-.724 2.06-1 4l-2-1 1-4-1.875-.25C24 60 24 60 22.813 58.125A125 125 0 0 1 21 53l-3-1-1-5h2z"/>
    <path fill="#282F2D" d="M64 2h6c1.837 3.782 2.158 5.946 1 10-4 0-4 0-6-1v2c-1.875-.25-1.875-.25-4-1-1.25-2.062-1.25-2.062-2-4h2l-1-4h4z"/>
    <path fill="#545751" d="M73 60h2l1 5-2 1-1 3 6-1 1 2-2.59.367-3.347.508-3.34.492L68 72l-1 2-2-1 1-2-1.812 1.938C62 75 62 75 59 76v2h-2c.385-2.804.662-4.56 2-7 2.16-1.505 4.373-2.592 6.742-3.734C69.04 65.417 70.718 62.973 73 60"/>
    <path fill="#232926" d="m22 30 1 2h2c-.375 2.438-.375 2.438-1 5l-2 1v-4c-2.09 4.54-2.09 4.54-3.437 9.313L18 45l-1.937.938c-2.328.935-2.328.935-3.313 3.687L12 52h-1l1-12h2l.277-1.797c.895-2.728 2.062-3.674 4.286-5.453l1.94-1.578z"/>
    <path fill="#90928C" d="m67 99-1 3 9-1c-4.26 4.26-8.537 5.115-14.437 5.125L57 106l-1-7c7.625-1.125 7.625-1.125 11 0"/>
    <path fill="#0D1529" d="M93 6h5l1 3c1.696 1.24 1.696 1.24 3.75 2.313 4.057 2.408 6.518 4.846 9.25 8.687v2h3l1 7h2l-1 4c-4-5.75-4-5.75-4-8h-2a947 947 0 0 1-2.742-4.285c-3.193-4.353-7.797-7.429-12.195-10.465L93 8z"/>
    <path fill="#8D9088" d="m66 45 3 1 1 3 2 1-1 3h3v4h3l2 6c-3.763-1.254-5.192-3.192-8-6a202 202 0 0 0-6.328-4.57C63 51 63 51 62 48c1.813-1.562 1.813-1.562 4-3"/>
    <path fill="#333832" d="M60 39c7.75-.125 7.75-.125 10 1l1 3c4.236 1.009 4.236 1.009 8.375.063L81 42v3h2v6c-3.674-.633-3.674-.633-5.25-2.406-2.407-2.193-4.845-2.817-7.937-3.782L66.52 43.77 64 43v-3h-2l-1 3h-2z"/>
    <path fill="#2B3339" d="m98 99 2 1-2.25 2.188c-2.74 2.673-2.74 2.673-4.687 5.437-2.893 3.33-5.749 5.183-10.227 5.555-1.946.007-3.892-.08-5.836-.18 2.44-2.75 5.067-4.245 8.313-5.937C92.066 103.635 92.066 103.635 98 99"/>
    <path fill="#747770" d="M44 71c3.947-.18 6.598-.094 10 2v-2h5l1 3h-2l-2 4-3-1v-2l-2.187.938c-2.616.988-5.064 1.59-7.813 2.062z"/>
    <path fill="#3D423C" d="M61.688 35.813c3.753.033 6.806.785 10.312 2.187v2l-12-1-1 4 1.375-1.5C62 40 62 40 64 40v3l2 1H55c2.17-7.958 2.17-7.958 6.688-8.187"/>
    <path fill="#202722" d="M81 2c2.5 1 2.5 1 4 2v3l-2.687-.937A62 62 0 0 0 74 4l-1 2 1.875.313C77 7 77 7 79 10l-5-1v3l4 2-1 3c-2.288-.915-3.734-1.655-5.25-3.625C70.64 9.861 70.877 6.677 71 3c3.17-1.585 6.54-1.294 10-1"/>
    <path fill="#0C1426" d="M118 35h2l1 5h2l1 5h1q-.172 4.407-.375 8.813c-.03.833-.062 1.666-.094 2.525l-.117 2.432-.095 2.237C124 63 124 63 122 66l-.148-3.586C121.423 53.043 120.99 43.97 118 35"/>
    <path fill="#2A2F2C" d="M98 56h1c.37 7.385.37 7.385-1.5 10.5L96 68c-1.937-.375-1.937-.375-4-1l-1-2-3 2v-4h2l-1-3 2-2 5 4z"/>
    <path fill="#323D4B" d="M118 37c2 1 2 1 2.633 2.617 1.325 6.08 1.549 11.999 1.555 18.196l.002 2.497c-.037 4.02-.196 7.768-1.19 11.69h-2l.5-2.875c.427-3.123.688-6.226.813-9.375l.113-2.516c-.227-2.425-.227-2.425-2.446-4.03L116 52h4l-.437-2.266L119 46.75l-.562-2.953C118 41 118 41 118 37"/>
    <path fill="#83857D" d="M40 83h2v8l3 1c-.564 3.27-1.5 4.826-4 7l-3-2c-.886-4.85-.261-9.62 2-14"/>
    <path fill="#4C514E" d="M100 31h1v14c4.778 1.017 4.778 1.017 9.438.063L112 44l-2 3 7 4-2 2-14-6 1 5-2 1z"/>
    <path fill="#4A4E49" d="m86 72 2.813 1.5c3.052 1.713 3.052 1.713 6.187 1.5l1-3v5l-3 1v2h-5v-4h-2l-.812 1.875C84 80 84 80 81 82l-2-2c3.75-3 3.75-3 6-3z"/>
    <path fill="#454943" d="m54 79 3 2-1 2-4-1v2h13v1H51l-2 4a340 340 0 0 1-3.5-2.375l-1.969-1.336L42 84v-2l9 1v-2z"/>
    <path fill="#3A3E39" d="M57 4h3c.553 2.076 1 3.844 1 6l1 2 3 1v-2c2.997.999 4.027 1.651 6 4v2c-1.962-.423-3.92-.864-5.875-1.312l-3.305-.739C59 14 59 14 57 11V7l-4-1h4z"/>
    <path fill="#787B76" d="M86 76h2v4h5l-1 3h-4l-1 4-6-2c.573-3.87 2.39-6.152 5-9"/>
    <path fill="#1B211C" d="M80 30c1.125 1.625 1.125 1.625 2 4-.875 3.25-.875 3.25-2 6h2v2l-7 1 1-3-3-2v-2h5l.438-2.437C79 31 79 31 80 30"/>
    <path fill="#6F726B" d="m53 91 2 2 1-1c2.813-.375 2.813-.375 6 0 4 4.105 4 4.105 4 6-4.921.167-8.503.248-13-2z"/>
    <path fill="#323631" d="m28 47 6 3-1 4h-4l3 2-1 3-4-1v-2l-2-1 1-2h2l-.562-2.437L27 48z"/>
    <path fill="#323730" d="M76 18c3.875.875 3.875.875 5 2 .239 7.522.239 7.522-1 10l-5-1 1-4h-2l1-2h1z"/>
    <path fill="#242C2C" d="m57 4 1 8h-5v-2l-4-1 3-1c-2.728 0-5.317.533-8 1V7c4.622-2.219 7.768-3.383 13-3"/>
    <path fill="#61635D" d="m69 79 8 2c-3.668 2.445-5.25 3.125-9.57 3.098l-2.715-.01-2.84-.025-2.863-.014Q55.505 84.03 52 84v-2c3.29-1.097 4.713-.8 8 0l1-2h2v2l6 1z"/>
    <path fill="#262C26" d="M35 68c.125 5.75.125 5.75-1 8l-8-2c1.424-5.694 3.525-6.296 9-6"/>
    <path fill="#181F21" d="M23 99c4.372-.378 6.651.657 10.313 3l2.675 1.688L38 105l-2.437 1.813c-2.786 1.996-2.786 1.996-3.563 5.187l-3-1 3-8-9-1z"/>
    <path fill="#161F20" d="m43 6 3 1h-2v2l8-3 1 3a375 375 0 0 1-5.625 2.063l-3.164 1.16c-3.483.843-5.756.602-9.211-.223 1.75-2 1.75-2 4-4h4z"/>
    <path fill="#1C2122" d="m45 111 3 1v2l1.938.75C52 116 52 116 52.75 118.125L53 120l-6 1-3-9z"/>
    <path fill="#444D52" d="m16 83 2.063 2.063 1.367 1.363a580 580 0 0 1 3.39 3.43l1.867 1.894 1.762 1.797c1.506 1.55 1.506 1.55 3.551 2.453v2h2v2l-4-2-2-.75c-2.875-1.797-4.136-4.454-6-7.25-2.1-1.389-2.1-1.389-4-2z"/>
    <path fill="#696B66" d="M40 56h3l2 8c-3.625 3-3.625 3-7 3q.212-2.188.438-4.375c.08-.812.162-1.624.246-2.46C39 58 39 58 40 56"/>
    <path fill="#222827" d="M82 112v2c-4.689 2.35-9.177 2.43-14.312 2.625l-2.534.117c-2.05.094-4.102.177-6.154.258l-1-2-2-1 2-1 2 1c2.019.096 4.041.13 6.063.125l3.285.008c2.574.168 2.574.168 3.652-1.133 6.111-1 6.111-1 9-1"/>
    <path fill="#485053" d="m11 61 6 5-4 1c.229 1.462.484 2.92.75 4.375l.422 2.46c.645 2.342.645 2.342 2.906 3.454L19 78h-3l-1 3c-3.454-6.458-3.684-12.763-4-20"/>
    <path fill="#6A6E68" d="m50 76 9 2v2h2l-1 3h-3l-1.312-1.562L54 80c-3.15.233-3.15.233-6 1l-1-3h3z"/>
    <path fill="#5E615B" d="m75 46 4 2v2l1.875.313C83 51 83 51 85 54h-2v2h-2v-3l-6 1z"/>
    <path fill="#171F1D" d="M14 37c3 2 3 2 3.688 5.125L18 45l-1.875.688C13.385 47.379 12.95 48.992 12 52h-1l1-12h2z"/>
    <path fill="#585C57" d="M54 91h15l-1 6h-3l-1.312-2c-1.585-2.348-1.585-2.348-4.75-2.312-2.868.131-2.868.131-4.938 1.312z"/>
    <path fill="#666963" d="m56 47 1 2-1 2 6 1v3c-1.768.39-3.54.762-5.312 1.125l-2.989.633C51 57 51 57 48 55l7-2-1-3z"/>
    <path fill="#38444C" d="M94 9c4.791 2.211 9.041 4.562 12 9l-6-2-1 5-2-4-1.625-3.125C94 11 94 11 94 9"/>
    <path fill="#2A2E2A" d="M60 4h3v4l2.938.375L69 9l1 2h-5v2c-1.875-.25-1.875-.25-4-1-1.25-2.062-1.25-2.062-2-4h2z"/>
    <path fill="#6F726D" d="M66 75h4l-1 8-6-1c.613-2.962 1.254-4.38 3-7"/>
    <path fill="#393D39" d="m87 68 1 4 3-2h4l1-2-1 7c-1.812.625-1.812.625-4 1-3-2-3-2-4-3a100 100 0 0 1 0-5"/>
    <path fill="#2B353B" d="M9 59c3.626.57 5.255 1.924 7.75 4.563l1.86 1.94c.458.495.917.988 1.39 1.497l-1 2-7-7v7l-3-2c-.408-2.712-.133-5.244 0-8"/>
    <path fill="#2E322D" d="M85 49c3.35 1.117 3.793 1.747 5.688 4.563l1.324 1.94L93 57c-1.832.645-1.832.645-4 1-2.512-2.161-4.51-4.02-6-7h2z"/>
    <path fill="#202621" d="M73 25h3l-1 4 2 1-2 4h-3l-3-6 2-2v3h2z"/>
    <path fill="#2E322E" d="m42 14-1.437 1.813C38.835 18.003 38.835 18.003 38 21h-2v-2l-5 2v-3l-1-2c4.177-1.591 7.532-2.213 12-2"/>
    <path fill="#0C121B" d="M121 67c1.5 2 2.076 3.406 1.758 5.906-.868 3.577-1.892 6.896-3.758 10.094h-1a585 585 0 0 1-.062-4.375l-.036-2.46C118 74 118 74 119 72h2z"/>
    <path fill="#6F716A" d="m42 84 7 4-2 1v3l-5-1c-1.125-4.75-1.125-4.75 0-7"/>
    <path fill="#636660" d="M73 60h2l1 5-2 1c-1.134 2.017-1.134 2.017-2 4h-3c-.812-1.625-.812-1.625-1-4 2.313-3.25 2.313-3.25 5-6"/>
    <path fill="#272D29" d="M57 35v2c-.675.182-1.35.364-2.047.55l-2.703.763-2.672.738C46.942 40.02 45.146 41.21 43 43l-2-1 1-4 2.688-.375c3.255-.502 3.255-.502 5.937-1.687C53 35 53 35 57 35"/>
    <path fill="#0C141A" d="M62 0h10v3l-8-1v2H52V3h10z"/>
    <path fill="#1C2120" d="m73 116-4 2 2 2c-1 1-1 1-4.437 1.125C63 121 63 121 61 120v-2c4.177-1.591 7.532-2.213 12-2"/>
    <path fill="#777B74" d="M72 76h6l1 5c-5.75.125-5.75.125-8-1z"/>
    <path fill="#454842" d="M37 67h1v9h2l1 5c-3.821-.53-6.062-1.497-9-4l4-1z"/>
    <path fill="#686A64" d="M86 56h1v13h-5l2-1v-2h2l-1.5-2.312C83 61 83 61 83 58h3z"/>
    <path fill="#272C28" d="M35 28c2.463 2.463 2.768 4.274 3.625 7.625.26 1.003.52 2.006.79 3.04L40 41c-2.86-1.36-4.86-2.645-7-5h2l-.562-3.437L34 29z"/>
    <path fill="#787B75" d="M75 60c4.429 5.143 4.429 5.143 5 9h-7z"/>
    <path fill="#2F342F" d="M73 8c3.856 1.14 7.065 2.178 10 5v3c-3.403-1.059-6.014-2.009-9-4-.687-2.125-.687-2.125-1-4"/>
    <path fill="#2E342F" d="M61 21c2 3 2 3 1.625 6.188L62 30l-10 1 3-1v-3h3v2h2z"/>
    <path fill="#3B444B" d="M33 102c5.449 1.72 10.712 3.847 16 6v1c-7.407.494-7.407.494-10.25-1.875L37 105c-2.133-1.235-2.133-1.235-4-2z"/>
    <path fill="#787B75" d="m80 69 3 4 4-4c-.875 5.75-.875 5.75-2 8l-5-1z"/>
    <path fill="#7F827B" d="m44 71 5 1-1 5-5 1z"/>
    <path fill="#7B7E79" d="m51 50 4 1v2l2 1-3.875.375C49.652 54.69 49.652 54.69 47 57v-5h4z"/>
    <path fill="#333834" d="M52 37h5l-2 8h-3z"/>
    <path fill="#2A343A" d="m22 93 1.063 1.25c1.813 1.638 3.433 2.645 5.562 3.813C32 100 32 100 33 102l-2.187-.937C28.197 100.074 25.749 99.47 23 99z"/>
    <path fill="#40443D" d="m37 57 3 1c-1.625 5.75-1.625 5.75-5 8l-1-7z"/>
    <path fill="#272B28" d="m17 47 4 1v2h2v5h-2v-2l-3-1z"/>
    <path fill="#3E433E" d="m63 23 3 1c-.75 7.75-.75 7.75-3 10q-.29-2.468-.562-4.937l-.317-2.778L62 24z"/>
    <path fill="#585A54" d="M31 76v1l-3.312.313c-3.544.66-4.62.89-6.688 3.687l-2-1c.125-1.875.125-1.875 1-4 4.336-2.168 6.725-2.263 11 0"/>
    <path fill="#5A5F5D" d="M99 53h1v9l4 2-2 1-1 2-4-1 1-2c.228-1.87.41-3.747.563-5.625l.253-3.04z"/>
    <path fill="#303531" d="m68 31 4 1v6l-6-1z"/>
    <path fill="#10181B" d="M76.813 1.813C80.035 1.84 82.255 2.17 85 4v3l-2.687-.937C79.53 5.17 76.859 4.556 74 4l-2-1c1-1 1-1 4.813-1.187"/>
    <path fill="#767872" d="M41 72h2l.438 3.375c.346 3.446.346 3.446 1.562 5.625h-3v-2h-2l-1-4h2z"/>
    <path fill="#575A55" d="m67 67 3 1-1 2 10-2 1 2-13 1-2-3z"/>
    <path fill="#343A36" d="m31 17 3 1-3 1-.375 1.938L30 23c-2.562 1.25-2.562 1.25-5 2v-3c2.813-2.75 2.813-2.75 6-5"/>
    <path fill="#787A75" d="m57 106 1.793.254c4.306.555 7.963.978 12.207-.254-1 1.5-1 1.5-3 3-3.911.489-7.263.246-11-1z"/>
    <path fill="#26303E" d="m114 82 1 2c-1.187 3.563-1.187 3.563-3 7-2.113.715-2.113.715-4 1q1.215-2.22 2.438-4.437l1.37-2.497C113 83 113 83 114 82"/>
    <path fill="#7E817A" d="m76 48-1 9-1-4h-3c.375-1.937.375-1.937 1-4 2-1 2-1 4-1"/>
    <path fill="#1E2629" d="M23 99c4.814-.566 7.203 1.174 11 4-2.633 1.316-3.802.748-6.625.063l-2.477-.59L23 102z"/>
    <path fill="#232622" d="m50 84 4 1v5l3 1c-4.75-.875-4.75-.875-7-2z"/>
    <path fill="#373B35" d="M36 70h1c.043 2 .04 4 0 6l-1 1c-1.812-.05-1.812-.05-4-.312-.722-.08-1.444-.158-2.187-.239L28 76l-1-2 7 2z"/>
    <path fill="#646761" d="m46 66 1.75 1.438C49.926 68.948 51.426 69.54 54 70v3c-2.929-.628-5.361-1.586-8-3z"/>
    <path fill="#434843" d="M60.563 35.938 63 36l-1 2-3 1-1 5h-3c2.176-7.98 2.176-7.98 5.563-8.062"/>
    <path fill="#0A131D" d="M29 17c-.812 1.938-.812 1.938-2 4l-3 1-1 2h-2c1.465-5.615 1.465-5.615 4-7.437C27 16 27 16 29 17"/>
    <path fill="#585B55" d="m69 79 8 2c-2.918 1.945-4.625 2.453-8 3z"/>
    <path fill="#7A7E77" d="M82 60a91 91 0 0 1 4 4v2l-3 1-2-1c-.625-2.562-.625-2.562-1-5z"/>
    <path fill="#A5A89F" d="m72 56 5 1 2 6c-3.36-1.12-4.69-2.372-7-5z"/>
    <path fill="#3B3E38" d="m87 56 3 2c.188 2.625.188 2.625 0 5h-2l-1 4z"/>
    <path fill="#323632" d="m49 42 2 1-2 5h-2v-2l-4-1v-2l5 1z"/>
    <path fill="#222723" d="M60 4h3l2 6-2 1c-2.125-.937-2.125-.937-4-2l2-1z"/>
    <path fill="#3D454E" d="m83 107 2 1c-3.593 2.892-5.177 4.053-9.875 3.75L72 111v-1l2.152-.402 2.785-.535 2.778-.528c2.238-.312 2.238-.312 3.285-1.535"/>
    <path fill="#343832" d="m35 53 1 2c2.017 1.134 2.017 1.134 4 2l-2.937.75L34 59c-.736 2.026-.736 2.026-1 4q.212-2.22.438-4.437c.08-.824.162-1.648.246-2.497C34 54 34 54 35 53"/>
    <path fill="#82857E" d="m61 46 2 2c-.375 2.125-.375 2.125-1 4l-3-1v-1l-2-1z"/>
    <path fill="#3F4440" d="m85 75 2 1-5 6-3-2c3.75-3 3.75-3 6-3z"/>
    <path fill="#797C75" d="m50 76 3 1v3l-5 1-1-3h3z"/>
    <path fill="#545853" d="M95 72h1v5l-3 1v2l-3-1c1.375-2 1.375-2 3-4h2z"/>
    <path fill="#787A73" d="m80 53-1 5-4-1v-3c3-1 3-1 5-1"/>
    <path fill="#B8BBB2" d="M64 49c4.677 1.477 4.677 1.477 6.313 4.125L71 55c-4.677-1.477-4.677-1.477-6.312-4.125z"/>
    <path fill="#363A35" d="M38 46h2v7h-3z"/>
    <path fill="#373C38" d="m63 4 5 1-1 2 2 2-6-1z"/>
    <path fill="#5B5F5A" d="m80 82 1 3c2 1.209 2 1.209 4 2l-5 2v-4l-2-1z"/>
    <path fill="#60635C" d="m31 82 2 1-1 3c-3.062 1.188-3.062 1.188-6 2v-2l1.938-.312L30 85z"/>
    <path fill="#111927" d="M119 72c2 3 2 3 1.75 6.625L120 82l-2 1a585 585 0 0 1-.062-4.375l-.036-2.46C118 74 118 74 119 72"/>
    <path fill="#404440" d="m87 68 1 4 3-2h3l-1 3h-6z"/>
    <path fill="#4C4F4A" d="M63 69c1.938.375 1.938.375 4 1l1 2-1 2-2-1 1-2-5 2z"/>
    <path fill="#71756F" d="m45 52 2 1-1 5h-2l-1-5z"/>
    <path fill="#1E282A" d="M40 9c2 1 2 1 3 3-2.312.625-2.312.625-5 1l-3-2c2.375-1.062 2.375-1.062 5-2"/>
</svg>
